<svg width="323" height="99" viewBox="0 0 323 99" fill="none" xmlns="http://www.w3.org/2000/svg">
<rect width="323" height="98.5" rx="20" fill="#1C1C1E"/>
<path d="M29.48 65V20.84H45.16C51.8587 20.84 57.0213 22.7387 60.648 26.536C64.3173 30.3333 66.152 35.7947 66.152 42.92C66.152 50.0453 64.3173 55.5067 60.648 59.304C57.0213 63.1013 51.8587 65 45.16 65H29.48ZM45.16 56.552C48.744 56.552 51.5813 55.528 53.672 53.48C55.7627 51.432 56.808 47.912 56.808 42.92C56.808 37.928 55.7627 34.408 53.672 32.36C51.5813 30.312 48.744 29.288 45.16 29.288H38.824V56.552H45.16ZM82.3865 65H73.0425V20.84H82.3865V65ZM105.691 65.896C97.627 65.896 91.8243 62.9947 88.283 57.192L95.067 51.368C96.475 53.5867 98.011 55.2293 99.675 56.296C101.339 57.32 103.323 57.832 105.627 57.832C107.931 57.832 109.723 57.384 111.003 56.488C112.283 55.592 112.923 54.2693 112.923 52.52C112.923 50.728 112.176 49.384 110.683 48.488C109.232 47.592 106.886 46.824 103.643 46.184C99.803 45.416 96.5817 43.9867 93.979 41.896C91.419 39.8053 90.139 36.8827 90.139 33.128C90.139 30.4827 90.8217 28.1573 92.187 26.152C93.5523 24.1467 95.4297 22.6107 97.819 21.544C100.251 20.4773 103.003 19.944 106.075 19.944C109.872 19.944 113.03 20.712 115.547 22.248C118.064 23.7413 120.155 25.768 121.819 28.328L115.355 33.576C114.032 31.4853 112.646 29.992 111.195 29.096C109.744 28.2 108.038 27.752 106.075 27.752C103.856 27.752 102.15 28.1787 100.955 29.032C99.803 29.8853 99.227 31.0373 99.227 32.488C99.227 33.64 99.5683 34.5787 100.251 35.304C100.934 35.9867 101.872 36.5627 103.067 37.032C104.262 37.4587 105.926 37.928 108.059 38.44C111.088 39.1653 113.584 39.976 115.547 40.872C117.51 41.768 119.088 43.0693 120.283 44.776C121.52 46.4827 122.139 48.7653 122.139 51.624C122.139 56.232 120.646 59.7733 117.659 62.248C114.672 64.68 110.683 65.896 105.691 65.896ZM147.478 65.896C143.467 65.896 139.904 64.9787 136.79 63.144C133.675 61.2667 131.243 58.6 129.494 55.144C127.744 51.688 126.87 47.6133 126.87 42.92C126.87 38.2267 127.744 34.152 129.494 30.696C131.243 27.24 133.675 24.5947 136.79 22.76C139.904 20.8827 143.467 19.944 147.478 19.944C155.456 19.944 161.088 23.0373 164.374 29.224L157.398 34.664C156.416 32.7013 155.051 31.1653 153.302 30.056C151.552 28.9467 149.611 28.392 147.478 28.392C145.344 28.392 143.424 28.9467 141.718 30.056C140.011 31.1653 138.667 32.8293 137.686 35.048C136.704 37.224 136.214 39.848 136.214 42.92C136.214 45.992 136.704 48.6373 137.686 50.856C138.667 53.032 140.011 54.6747 141.718 55.784C143.424 56.8933 145.344 57.448 147.478 57.448C149.568 57.448 151.488 56.8933 153.238 55.784C155.03 54.6747 156.416 53.1387 157.398 51.176L164.374 56.616C162.752 59.6453 160.491 61.9493 157.59 63.528C154.731 65.1067 151.36 65.896 147.478 65.896ZM188.347 65.896C184.336 65.896 180.795 64.9787 177.723 63.144C174.651 61.3093 172.261 58.664 170.555 55.208C168.848 51.7093 167.995 47.6133 167.995 42.92C167.995 38.2267 168.848 34.152 170.555 30.696C172.261 27.1973 174.651 24.5307 177.723 22.696C180.795 20.8613 184.336 19.944 188.347 19.944C192.357 19.944 195.899 20.8613 198.971 22.696C202.043 24.5307 204.432 27.1973 206.139 30.696C207.845 34.152 208.699 38.2267 208.699 42.92C208.699 47.6133 207.845 51.7093 206.139 55.208C204.432 58.664 202.043 61.3093 198.971 63.144C195.899 64.9787 192.357 65.896 188.347 65.896ZM188.347 57.448C191.931 57.448 194.661 56.2107 196.539 53.736C198.416 51.2187 199.354 47.6133 199.354 42.92C199.354 38.2267 198.416 34.6427 196.539 32.168C194.661 29.6507 191.931 28.392 188.347 28.392C184.763 28.392 182.032 29.6507 180.155 32.168C178.277 34.6427 177.339 38.2267 177.339 42.92C177.339 47.6133 178.277 51.2187 180.155 53.736C182.032 56.2107 184.763 57.448 188.347 57.448ZM215.605 65V20.84H231.285C237.984 20.84 243.146 22.7387 246.773 26.536C250.442 30.3333 252.277 35.7947 252.277 42.92C252.277 50.0453 250.442 55.5067 246.773 59.304C243.146 63.1013 237.984 65 231.285 65H215.605ZM231.285 56.552C234.869 56.552 237.706 55.528 239.797 53.48C241.888 51.432 242.933 47.912 242.933 42.92C242.933 37.928 241.888 34.408 239.797 32.36C237.706 30.312 234.869 29.288 231.285 29.288H224.949V56.552H231.285ZM296.724 65H286.612L283.732 56.552H266.068L263.188 65H253.076L269.78 20.84H280.02L296.724 65ZM274.9 30.888L269.012 48.104H280.788L274.9 30.888Z" fill="#5865F2"/>
<path d="M105.412 84.5V76.22H108.184C109.4 76.22 110.352 76.576 111.04 77.288C111.728 78 112.072 79.024 112.072 80.36C112.072 81.696 111.728 82.72 111.04 83.432C110.352 84.144 109.4 84.5 108.184 84.5H105.412ZM108.184 83.228C108.968 83.228 109.576 83 110.008 82.544C110.448 82.088 110.668 81.36 110.668 80.36C110.668 79.36 110.448 78.632 110.008 78.176C109.576 77.72 108.968 77.492 108.184 77.492H106.804V83.228H108.184ZM114.051 77.756C113.803 77.756 113.607 77.684 113.463 77.54C113.319 77.388 113.247 77.192 113.247 76.952C113.247 76.704 113.319 76.508 113.463 76.364C113.607 76.212 113.803 76.136 114.051 76.136C114.299 76.136 114.495 76.212 114.639 76.364C114.791 76.508 114.867 76.704 114.867 76.952C114.867 77.192 114.791 77.388 114.639 77.54C114.495 77.684 114.299 77.756 114.051 77.756ZM114.711 84.5H113.391V78.86H114.711V84.5ZM118.275 84.668C117.795 84.668 117.351 84.572 116.943 84.38C116.535 84.188 116.211 83.9 115.971 83.516L116.871 82.784C117.055 83.072 117.267 83.284 117.507 83.42C117.747 83.556 118.035 83.624 118.371 83.624C118.635 83.624 118.851 83.564 119.019 83.444C119.187 83.316 119.271 83.144 119.271 82.928C119.271 82.72 119.187 82.56 119.019 82.448C118.851 82.328 118.575 82.228 118.191 82.148L117.843 82.076C117.331 81.972 116.923 81.796 116.619 81.548C116.323 81.3 116.175 80.928 116.175 80.432C116.175 79.864 116.371 79.432 116.763 79.136C117.163 78.84 117.683 78.692 118.323 78.692C118.811 78.692 119.219 78.776 119.547 78.944C119.875 79.112 120.159 79.356 120.399 79.676L119.535 80.42C119.199 79.964 118.779 79.736 118.275 79.736C118.027 79.736 117.815 79.792 117.639 79.904C117.463 80.008 117.375 80.156 117.375 80.348C117.375 80.548 117.467 80.7 117.651 80.804C117.835 80.908 118.147 81.004 118.587 81.092L118.875 81.152C119.987 81.352 120.543 81.9 120.543 82.796C120.543 83.388 120.335 83.848 119.919 84.176C119.511 84.504 118.963 84.668 118.275 84.668ZM124.159 84.668C123.639 84.668 123.167 84.552 122.743 84.32C122.319 84.088 121.983 83.748 121.735 83.3C121.487 82.844 121.363 82.3 121.363 81.668C121.363 81.028 121.487 80.488 121.735 80.048C121.991 79.6 122.331 79.264 122.755 79.04C123.187 78.808 123.663 78.692 124.183 78.692C125.263 78.692 126.039 79.128 126.511 80L125.503 80.708C125.351 80.428 125.167 80.212 124.951 80.06C124.743 79.908 124.479 79.832 124.159 79.832C123.727 79.832 123.375 79.992 123.103 80.312C122.831 80.624 122.695 81.076 122.695 81.668C122.695 82.268 122.831 82.728 123.103 83.048C123.375 83.368 123.727 83.528 124.159 83.528C124.511 83.528 124.799 83.448 125.023 83.288C125.247 83.12 125.439 82.892 125.599 82.604L126.547 83.348C126.315 83.764 125.991 84.088 125.575 84.32C125.167 84.552 124.695 84.668 124.159 84.668ZM129.947 84.668C129.435 84.668 128.971 84.552 128.555 84.32C128.139 84.088 127.807 83.748 127.559 83.3C127.319 82.852 127.199 82.312 127.199 81.68C127.199 81.048 127.319 80.508 127.559 80.06C127.807 79.612 128.139 79.272 128.555 79.04C128.971 78.808 129.435 78.692 129.947 78.692C130.459 78.692 130.923 78.808 131.339 79.04C131.755 79.272 132.083 79.612 132.323 80.06C132.571 80.508 132.695 81.048 132.695 81.68C132.695 82.312 132.571 82.852 132.323 83.3C132.083 83.748 131.755 84.088 131.339 84.32C130.923 84.552 130.459 84.668 129.947 84.668ZM129.947 83.54C130.387 83.54 130.735 83.384 130.991 83.072C131.247 82.752 131.375 82.288 131.375 81.68C131.375 81.072 131.247 80.612 130.991 80.3C130.735 79.98 130.387 79.82 129.947 79.82C129.507 79.82 129.159 79.98 128.903 80.3C128.647 80.612 128.519 81.072 128.519 81.68C128.519 82.288 128.647 82.752 128.903 83.072C129.159 83.384 129.507 83.54 129.947 83.54ZM134.027 84.5V78.86H135.203L135.347 79.676C135.515 79.348 135.723 79.104 135.971 78.944C136.219 78.776 136.535 78.692 136.919 78.692C137.183 78.692 137.383 78.728 137.519 78.8V80.06C137.271 79.948 136.999 79.892 136.703 79.892C136.415 79.892 136.155 79.98 135.923 80.156C135.691 80.332 135.499 80.576 135.347 80.888V84.5H134.027ZM140.605 84.668C140.157 84.668 139.745 84.552 139.369 84.32C138.993 84.088 138.693 83.748 138.469 83.3C138.245 82.852 138.133 82.312 138.133 81.68C138.133 81.048 138.245 80.508 138.469 80.06C138.693 79.612 138.993 79.272 139.369 79.04C139.745 78.808 140.157 78.692 140.605 78.692C140.933 78.692 141.229 78.748 141.493 78.86C141.757 78.964 141.977 79.112 142.153 79.304V75.74H143.473V84.5H142.345L142.249 83.876C142.057 84.124 141.821 84.32 141.541 84.464C141.269 84.6 140.957 84.668 140.605 84.668ZM140.941 83.54C141.421 83.54 141.825 83.312 142.153 82.856V80.504C141.833 80.048 141.429 79.82 140.941 79.82C140.517 79.82 140.165 79.984 139.885 80.312C139.605 80.632 139.465 81.088 139.465 81.68C139.465 82.272 139.605 82.732 139.885 83.06C140.165 83.38 140.517 83.54 140.941 83.54ZM145.821 84.596C145.549 84.596 145.329 84.512 145.161 84.344C145.001 84.176 144.921 83.96 144.921 83.696C144.921 83.432 145.005 83.22 145.173 83.06C145.341 82.892 145.557 82.808 145.821 82.808C146.085 82.808 146.297 82.892 146.457 83.06C146.625 83.228 146.709 83.44 146.709 83.696C146.709 83.96 146.625 84.176 146.457 84.344C146.297 84.512 146.085 84.596 145.821 84.596ZM148.82 77.756C148.572 77.756 148.376 77.684 148.232 77.54C148.088 77.388 148.016 77.192 148.016 76.952C148.016 76.704 148.088 76.508 148.232 76.364C148.376 76.212 148.572 76.136 148.82 76.136C149.068 76.136 149.264 76.212 149.408 76.364C149.56 76.508 149.636 76.704 149.636 76.952C149.636 77.192 149.56 77.388 149.408 77.54C149.264 77.684 149.068 77.756 148.82 77.756ZM147.692 86.948C147.468 86.948 147.292 86.932 147.164 86.9V85.628C147.284 85.7 147.432 85.736 147.608 85.736C147.784 85.736 147.92 85.668 148.016 85.532C148.112 85.404 148.16 85.212 148.16 84.956V78.86H149.48V85.052C149.48 85.644 149.32 86.108 149 86.444C148.688 86.78 148.252 86.948 147.692 86.948ZM153.045 84.668C152.565 84.668 152.121 84.572 151.713 84.38C151.305 84.188 150.981 83.9 150.741 83.516L151.641 82.784C151.825 83.072 152.037 83.284 152.277 83.42C152.517 83.556 152.805 83.624 153.141 83.624C153.405 83.624 153.621 83.564 153.789 83.444C153.957 83.316 154.041 83.144 154.041 82.928C154.041 82.72 153.957 82.56 153.789 82.448C153.621 82.328 153.345 82.228 152.961 82.148L152.613 82.076C152.101 81.972 151.693 81.796 151.389 81.548C151.093 81.3 150.945 80.928 150.945 80.432C150.945 79.864 151.141 79.432 151.533 79.136C151.933 78.84 152.453 78.692 153.093 78.692C153.581 78.692 153.989 78.776 154.317 78.944C154.645 79.112 154.929 79.356 155.169 79.676L154.305 80.42C153.969 79.964 153.549 79.736 153.045 79.736C152.797 79.736 152.585 79.792 152.409 79.904C152.233 80.008 152.145 80.156 152.145 80.348C152.145 80.548 152.237 80.7 152.421 80.804C152.605 80.908 152.917 81.004 153.357 81.092L153.645 81.152C154.757 81.352 155.313 81.9 155.313 82.796C155.313 83.388 155.105 83.848 154.689 84.176C154.281 84.504 153.733 84.668 153.045 84.668ZM160.699 84.5H159.307V76.22H164.623V77.492H160.699V79.964H163.963V81.236H160.699V84.5ZM165.574 84.5V78.86H166.75L166.894 79.676C167.062 79.348 167.27 79.104 167.518 78.944C167.766 78.776 168.082 78.692 168.466 78.692C168.73 78.692 168.93 78.728 169.066 78.8V80.06C168.818 79.948 168.546 79.892 168.25 79.892C167.962 79.892 167.702 79.98 167.47 80.156C167.238 80.332 167.046 80.576 166.894 80.888V84.5H165.574ZM171.564 84.668C171.06 84.668 170.64 84.52 170.304 84.224C169.968 83.928 169.8 83.512 169.8 82.976C169.8 81.712 170.952 81.068 173.256 81.044V80.876C173.256 80.532 173.156 80.264 172.956 80.072C172.756 79.88 172.476 79.784 172.116 79.784C171.86 79.784 171.596 79.84 171.324 79.952C171.06 80.056 170.812 80.216 170.58 80.432L169.932 79.604C170.204 79.316 170.536 79.092 170.928 78.932C171.32 78.772 171.74 78.692 172.188 78.692C173.78 78.692 174.576 79.42 174.576 80.876V84.5H173.364L173.256 83.792C173.104 84.024 172.88 84.228 172.584 84.404C172.296 84.58 171.956 84.668 171.564 84.668ZM171.9 83.612C172.42 83.612 172.872 83.36 173.256 82.856V81.92C172.52 81.944 171.976 82.04 171.624 82.208C171.272 82.368 171.096 82.604 171.096 82.916C171.096 83.14 171.168 83.312 171.312 83.432C171.456 83.552 171.652 83.612 171.9 83.612ZM182.575 78.692C183.127 78.692 183.563 78.872 183.883 79.232C184.211 79.584 184.375 80.044 184.375 80.612V84.5H183.055V80.828C183.055 80.524 182.967 80.28 182.791 80.096C182.623 79.912 182.395 79.82 182.107 79.82C181.635 79.82 181.251 80.076 180.955 80.588V84.5H179.635V80.828C179.635 80.524 179.547 80.28 179.371 80.096C179.203 79.912 178.979 79.82 178.699 79.82C178.195 79.82 177.807 80.076 177.535 80.588V84.5H176.215V78.86H177.415L177.535 79.58C177.711 79.308 177.923 79.092 178.171 78.932C178.427 78.772 178.755 78.692 179.155 78.692C179.563 78.692 179.899 78.78 180.163 78.956C180.435 79.132 180.639 79.368 180.775 79.664C180.951 79.368 181.199 79.132 181.519 78.956C181.839 78.78 182.191 78.692 182.575 78.692ZM188.579 84.668C188.003 84.668 187.499 84.548 187.067 84.308C186.635 84.068 186.299 83.724 186.059 83.276C185.827 82.828 185.711 82.296 185.711 81.68C185.711 81.064 185.831 80.532 186.071 80.084C186.311 79.628 186.635 79.284 187.043 79.052C187.459 78.812 187.919 78.692 188.423 78.692C189.247 78.692 189.879 78.952 190.319 79.472C190.759 79.984 190.979 80.672 190.979 81.536C190.979 81.64 190.971 81.804 190.955 82.028H187.019C187.083 82.516 187.251 82.9 187.523 83.18C187.803 83.452 188.167 83.588 188.615 83.588C188.927 83.588 189.203 83.528 189.443 83.408C189.683 83.28 189.903 83.096 190.103 82.856L190.871 83.672C190.583 84.008 190.259 84.26 189.899 84.428C189.539 84.588 189.099 84.668 188.579 84.668ZM189.779 81.068C189.747 80.628 189.611 80.3 189.371 80.084C189.131 79.868 188.811 79.76 188.411 79.76C188.043 79.76 187.739 79.876 187.499 80.108C187.267 80.332 187.115 80.652 187.043 81.068H189.779ZM194.623 84.5H193.111L191.539 78.86H192.883L193.927 83.012L195.055 78.86H196.459L197.587 83.012L198.643 78.86H199.975L198.403 84.5H196.891L195.763 80.384L194.623 84.5ZM203.412 84.668C202.9 84.668 202.436 84.552 202.02 84.32C201.604 84.088 201.272 83.748 201.024 83.3C200.784 82.852 200.664 82.312 200.664 81.68C200.664 81.048 200.784 80.508 201.024 80.06C201.272 79.612 201.604 79.272 202.02 79.04C202.436 78.808 202.9 78.692 203.412 78.692C203.924 78.692 204.388 78.808 204.804 79.04C205.22 79.272 205.548 79.612 205.788 80.06C206.036 80.508 206.16 81.048 206.16 81.68C206.16 82.312 206.036 82.852 205.788 83.3C205.548 83.748 205.22 84.088 204.804 84.32C204.388 84.552 203.924 84.668 203.412 84.668ZM203.412 83.54C203.852 83.54 204.2 83.384 204.456 83.072C204.712 82.752 204.84 82.288 204.84 81.68C204.84 81.072 204.712 80.612 204.456 80.3C204.2 79.98 203.852 79.82 203.412 79.82C202.972 79.82 202.624 79.98 202.368 80.3C202.112 80.612 201.984 81.072 201.984 81.68C201.984 82.288 202.112 82.752 202.368 83.072C202.624 83.384 202.972 83.54 203.412 83.54ZM207.492 84.5V78.86H208.668L208.812 79.676C208.98 79.348 209.188 79.104 209.436 78.944C209.684 78.776 210 78.692 210.384 78.692C210.648 78.692 210.848 78.728 210.984 78.8V80.06C210.736 79.948 210.464 79.892 210.168 79.892C209.88 79.892 209.62 79.98 209.388 80.156C209.156 80.332 208.964 80.576 208.812 80.888V84.5H207.492ZM212.215 84.5V75.74H213.535V80.768L215.575 78.86H217.183L214.999 80.924C215.967 82.028 216.707 83.22 217.219 84.5H215.743C215.383 83.484 214.839 82.576 214.111 81.776L213.535 82.316V84.5H212.215Z" fill="#5865F2"/>
</svg>
